SOL 103                                                                         
CEND                                                                            
BEGIN BULK                                                                      
GRID           1       0 0.00000 0.00000 2.54000       0       0       0        
GRID           2       0 0.01587 0.00000 2.53995       0       0       0        
GRID           3       0 0.03174 0.00000 2.53980       0       0       0        
GRID           4       0 0.04762 0.00000 2.53955       0       0       0        
GRID           5       0 0.06349 0.00000 2.53920       0       0       0        
GRID           6       0 0.07936 0.00000 2.53876       0       0       0        
GRID           7       0 0.09522 0.00000 2.53821       0       0       0        
GRID           8       0 0.11109 0.00000 2.53757       0       0       0        
GRID           9       0 0.12694 0.00000 2.53682       0       0       0        
GRID          10       0 0.14280 0.00000 2.53598       0       0       0        
GRID          11       0 0.15864 0.00000 2.53504       0       0       0        
GRID          12       0 0.17448 0.00000 2.53400       0       0       0        
GRID          13       0 0.19032 0.00000 2.53286       0       0       0        
GRID          14       0 0.20614 0.00000 2.53162       0       0       0        
GRID          15       0 0.22196 0.00000 2.53028       0       0       0        
GRID          16       0 0.23777 0.00000 2.52884       0       0       0        
GRID          17       0 0.25357 0.00000 2.52731       0       0       0        
GRID          18       0 0.00000 0.01587 2.54000       0       0       0        
GRID          19       0 0.01587 0.01587 2.53995       0       0       0        
GRID          20       0 0.03174 0.01587 2.53980       0       0       0        
GRID          21       0 0.04762 0.01587 2.53955       0       0       0        
GRID          22       0 0.06349 0.01587 2.53920       0       0       0        
GRID          23       0 0.07936 0.01587 2.53876       0       0       0        
GRID          24       0 0.09522 0.01587 2.53821       0       0       0        
GRID          25       0 0.11109 0.01587 2.53757       0       0       0        
GRID          26       0 0.12694 0.01587 2.53682       0       0       0        
GRID          27       0 0.14280 0.01587 2.53598       0       0       0        
GRID          28       0 0.15864 0.01587 2.53504       0       0       0        
GRID          29       0 0.17448 0.01587 2.53400       0       0       0        
GRID          30       0 0.19032 0.01587 2.53286       0       0       0        
GRID          31       0 0.20614 0.01587 2.53162       0       0       0        
GRID          32       0 0.22196 0.01587 2.53028       0       0       0        
GRID          33       0 0.23777 0.01587 2.52884       0       0       0        
GRID          34       0 0.25357 0.01587 2.52731       0       0       0        
GRID          35       0 0.00000 0.03175 2.54000       0       0       0        
GRID          36       0 0.01587 0.03175 2.53995       0       0       0        
GRID          37       0 0.03174 0.03175 2.53980       0       0       0        
GRID          38       0 0.04762 0.03175 2.53955       0       0       0        
GRID          39       0 0.06349 0.03175 2.53920       0       0       0        
GRID          40       0 0.07936 0.03175 2.53876       0       0       0        
GRID          41       0 0.09522 0.03175 2.53821       0       0       0        
GRID          42       0 0.11109 0.03175 2.53757       0       0       0        
GRID          43       0 0.12694 0.03175 2.53682       0       0       0        
GRID          44       0 0.14280 0.03175 2.53598       0       0       0        
GRID          45       0 0.15864 0.03175 2.53504       0       0       0        
GRID          46       0 0.17448 0.03175 2.53400       0       0       0        
GRID          47       0 0.19032 0.03175 2.53286       0       0       0        
GRID          48       0 0.20614 0.03175 2.53162       0       0       0        
GRID          49       0 0.22196 0.03175 2.53028       0       0       0        
GRID          50       0 0.23777 0.03175 2.52884       0       0       0        
GRID          51       0 0.25357 0.03175 2.52731       0       0       0        
GRID          52       0 0.00000 0.04762 2.54000       0       0       0        
GRID          53       0 0.01587 0.04762 2.53995       0       0       0        
GRID          54       0 0.03174 0.04762 2.53980       0       0       0        
GRID          55       0 0.04762 0.04762 2.53955       0       0       0        
GRID          56       0 0.06349 0.04762 2.53920       0       0       0        
GRID          57       0 0.07936 0.04762 2.53876       0       0       0        
GRID          58       0 0.09522 0.04762 2.53821       0       0       0        
GRID          59       0 0.11109 0.04762 2.53757       0       0       0        
GRID          60       0 0.12694 0.04762 2.53682       0       0       0        
GRID          61       0 0.14280 0.04762 2.53598       0       0       0        
GRID          62       0 0.15864 0.04762 2.53504       0       0       0        
GRID          63       0 0.17448 0.04762 2.53400       0       0       0        
GRID          64       0 0.19032 0.04762 2.53286       0       0       0        
GRID          65       0 0.20614 0.04762 2.53162       0       0       0        
GRID          66       0 0.22196 0.04762 2.53028       0       0       0        
GRID          67       0 0.23777 0.04762 2.52884       0       0       0        
GRID          68       0 0.25357 0.04762 2.52731       0       0       0        
GRID          69       0 0.00000 0.06350 2.54000       0       0       0        
GRID          70       0 0.01587 0.06350 2.53995       0       0       0        
GRID          71       0 0.03174 0.06350 2.53980       0       0       0        
GRID          72       0 0.04762 0.06350 2.53955       0       0       0        
GRID          73       0 0.06349 0.06350 2.53920       0       0       0        
GRID          74       0 0.07936 0.06350 2.53876       0       0       0        
GRID          75       0 0.09522 0.06350 2.53821       0       0       0        
GRID          76       0 0.11109 0.06350 2.53757       0       0       0        
GRID          77       0 0.12694 0.06350 2.53682       0       0       0        
GRID          78       0 0.14280 0.06350 2.53598       0       0       0        
GRID          79       0 0.15864 0.06350 2.53504       0       0       0        
GRID          80       0 0.17448 0.06350 2.53400       0       0       0        
GRID          81       0 0.19032 0.06350 2.53286       0       0       0        
GRID          82       0 0.20614 0.06350 2.53162       0       0       0        
GRID          83       0 0.22196 0.06350 2.53028       0       0       0        
GRID          84       0 0.23777 0.06350 2.52884       0       0       0        
GRID          85       0 0.25357 0.06350 2.52731       0       0       0        
GRID          86       0 0.00000 0.07937 2.54000       0       0       0        
GRID          87       0 0.01587 0.07937 2.53995       0       0       0        
GRID          88       0 0.03174 0.07937 2.53980       0       0       0        
GRID          89       0 0.04762 0.07937 2.53955       0       0       0        
GRID          90       0 0.06349 0.07937 2.53920       0       0       0        
GRID          91       0 0.07936 0.07937 2.53876       0       0       0        
GRID          92       0 0.09522 0.07937 2.53821       0       0       0        
GRID          93       0 0.11109 0.07937 2.53757       0       0       0        
GRID          94       0 0.12694 0.07937 2.53682       0       0       0        
GRID          95       0 0.14280 0.07937 2.53598       0       0       0        
GRID          96       0 0.15864 0.07937 2.53504       0       0       0        
GRID          97       0 0.17448 0.07937 2.53400       0       0       0        
GRID          98       0 0.19032 0.07937 2.53286       0       0       0        
GRID          99       0 0.20614 0.07937 2.53162       0       0       0        
GRID         100       0 0.22196 0.07937 2.53028       0       0       0        
GRID         101       0 0.23777 0.07937 2.52884       0       0       0        
GRID         102       0 0.25357 0.07937 2.52731       0       0       0        
GRID         103       0 0.00000 0.09525 2.54000       0       0       0        
GRID         104       0 0.01587 0.09525 2.53995       0       0       0        
GRID         105       0 0.03174 0.09525 2.53980       0       0       0        
GRID         106       0 0.04762 0.09525 2.53955       0       0       0        
GRID         107       0 0.06349 0.09525 2.53920       0       0       0        
GRID         108       0 0.07936 0.09525 2.53876       0       0       0        
GRID         109       0 0.09522 0.09525 2.53821       0       0       0        
GRID         110       0 0.11109 0.09525 2.53757       0       0       0        
GRID         111       0 0.12694 0.09525 2.53682       0       0       0        
GRID         112       0 0.14280 0.09525 2.53598       0       0       0        
GRID         113       0 0.15864 0.09525 2.53504       0       0       0        
GRID         114       0 0.17448 0.09525 2.53400       0       0       0        
GRID         115       0 0.19032 0.09525 2.53286       0       0       0        
GRID         116       0 0.20614 0.09525 2.53162       0       0       0        
GRID         117       0 0.22196 0.09525 2.53028       0       0       0        
GRID         118       0 0.23777 0.09525 2.52884       0       0       0        
GRID         119       0 0.25357 0.09525 2.52731       0       0       0        
GRID         120       0 0.00000 0.11112 2.54000       0       0       0        
GRID         121       0 0.01587 0.11112 2.53995       0       0       0        
GRID         122       0 0.03174 0.11112 2.53980       0       0       0        
GRID         123       0 0.04762 0.11112 2.53955       0       0       0        
GRID         124       0 0.06349 0.11112 2.53920       0       0       0        
GRID         125       0 0.07936 0.11112 2.53876       0       0       0        
GRID         126       0 0.09522 0.11112 2.53821       0       0       0        
GRID         127       0 0.11109 0.11112 2.53757       0       0       0        
GRID         128       0 0.12694 0.11112 2.53682       0       0       0        
GRID         129       0 0.14280 0.11112 2.53598       0       0       0        
GRID         130       0 0.15864 0.11112 2.53504       0       0       0        
GRID         131       0 0.17448 0.11112 2.53400       0       0       0        
GRID         132       0 0.19032 0.11112 2.53286       0       0       0        
GRID         133       0 0.20614 0.11112 2.53162       0       0       0        
GRID         134       0 0.22196 0.11112 2.53028       0       0       0        
GRID         135       0 0.23777 0.11112 2.52884       0       0       0        
GRID         136       0 0.25357 0.11112 2.52731       0       0       0        
GRID         137       0 0.00000 0.12700 2.54000       0       0       0        
GRID         138       0 0.01587 0.12700 2.53995       0       0       0        
GRID         139       0 0.03174 0.12700 2.53980       0       0       0        
GRID         140       0 0.04762 0.12700 2.53955       0       0       0        
GRID         141       0 0.06349 0.12700 2.53920       0       0       0        
GRID         142       0 0.07936 0.12700 2.53876       0       0       0        
GRID         143       0 0.09522 0.12700 2.53821       0       0       0        
GRID         144       0 0.11109 0.12700 2.53757       0       0       0        
GRID         145       0 0.12694 0.12700 2.53682       0       0       0        
GRID         146       0 0.14280 0.12700 2.53598       0       0       0        
GRID         147       0 0.15864 0.12700 2.53504       0       0       0        
GRID         148       0 0.17448 0.12700 2.53400       0       0       0        
GRID         149       0 0.19032 0.12700 2.53286       0       0       0        
GRID         150       0 0.20614 0.12700 2.53162       0       0       0        
GRID         151       0 0.22196 0.12700 2.53028       0       0       0        
GRID         152       0 0.23777 0.12700 2.52884       0       0       0        
GRID         153       0 0.25357 0.12700 2.52731       0       0       0        
GRID         154       0 0.00000 0.14287 2.54000       0       0       0        
GRID         155       0 0.01587 0.14287 2.53995       0       0       0        
GRID         156       0 0.03174 0.14287 2.53980       0       0       0        
GRID         157       0 0.04762 0.14287 2.53955       0       0       0        
GRID         158       0 0.06349 0.14287 2.53920       0       0       0        
GRID         159       0 0.07936 0.14287 2.53876       0       0       0        
GRID         160       0 0.09522 0.14287 2.53821       0       0       0        
GRID         161       0 0.11109 0.14287 2.53757       0       0       0        
GRID         162       0 0.12694 0.14287 2.53682       0       0       0        
GRID         163       0 0.14280 0.14287 2.53598       0       0       0        
GRID         164       0 0.15864 0.14287 2.53504       0       0       0        
GRID         165       0 0.17448 0.14287 2.53400       0       0       0        
GRID         166       0 0.19032 0.14287 2.53286       0       0       0        
GRID         167       0 0.20614 0.14287 2.53162       0       0       0        
GRID         168       0 0.22196 0.14287 2.53028       0       0       0        
GRID         169       0 0.23777 0.14287 2.52884       0       0       0        
GRID         170       0 0.25357 0.14287 2.52731       0       0       0        
GRID         171       0 0.00000 0.15875 2.54000       0       0       0        
GRID         172       0 0.01587 0.15875 2.53995       0       0       0        
GRID         173       0 0.03174 0.15875 2.53980       0       0       0        
GRID         174       0 0.04762 0.15875 2.53955       0       0       0        
GRID         175       0 0.06349 0.15875 2.53920       0       0       0        
GRID         176       0 0.07936 0.15875 2.53876       0       0       0        
GRID         177       0 0.09522 0.15875 2.53821       0       0       0        
GRID         178       0 0.11109 0.15875 2.53757       0       0       0        
GRID         179       0 0.12694 0.15875 2.53682       0       0       0        
GRID         180       0 0.14280 0.15875 2.53598       0       0       0        
GRID         181       0 0.15864 0.15875 2.53504       0       0       0        
GRID         182       0 0.17448 0.15875 2.53400       0       0       0        
GRID         183       0 0.19032 0.15875 2.53286       0       0       0        
GRID         184       0 0.20614 0.15875 2.53162       0       0       0        
GRID         185       0 0.22196 0.15875 2.53028       0       0       0        
GRID         186       0 0.23777 0.15875 2.52884       0       0       0        
GRID         187       0 0.25357 0.15875 2.52731       0       0       0        
GRID         188       0 0.00000 0.17462 2.54000       0       0       0        
GRID         189       0 0.01587 0.17462 2.53995       0       0       0        
GRID         190       0 0.03174 0.17462 2.53980       0       0       0        
GRID         191       0 0.04762 0.17462 2.53955       0       0       0        
GRID         192       0 0.06349 0.17462 2.53920       0       0       0        
GRID         193       0 0.07936 0.17462 2.53876       0       0       0        
GRID         194       0 0.09522 0.17462 2.53821       0       0       0        
GRID         195       0 0.11109 0.17462 2.53757       0       0       0        
GRID         196       0 0.12694 0.17462 2.53682       0       0       0        
GRID         197       0 0.14280 0.17462 2.53598       0       0       0        
GRID         198       0 0.15864 0.17462 2.53504       0       0       0        
GRID         199       0 0.17448 0.17462 2.53400       0       0       0        
GRID         200       0 0.19032 0.17462 2.53286       0       0       0        
GRID         201       0 0.20614 0.17462 2.53162       0       0       0        
GRID         202       0 0.22196 0.17462 2.53028       0       0       0        
GRID         203       0 0.23777 0.17462 2.52884       0       0       0        
GRID         204       0 0.25357 0.17462 2.52731       0       0       0        
GRID         205       0 0.00000 0.19050 2.54000       0       0       0        
GRID         206       0 0.01587 0.19050 2.53995       0       0       0        
GRID         207       0 0.03174 0.19050 2.53980       0       0       0        
GRID         208       0 0.04762 0.19050 2.53955       0       0       0        
GRID         209       0 0.06349 0.19050 2.53920       0       0       0        
GRID         210       0 0.07936 0.19050 2.53876       0       0       0        
GRID         211       0 0.09522 0.19050 2.53821       0       0       0        
GRID         212       0 0.11109 0.19050 2.53757       0       0       0        
GRID         213       0 0.12694 0.19050 2.53682       0       0       0        
GRID         214       0 0.14280 0.19050 2.53598       0       0       0        
GRID         215       0 0.15864 0.19050 2.53504       0       0       0        
GRID         216       0 0.17448 0.19050 2.53400       0       0       0        
GRID         217       0 0.19032 0.19050 2.53286       0       0       0        
GRID         218       0 0.20614 0.19050 2.53162       0       0       0        
GRID         219       0 0.22196 0.19050 2.53028       0       0       0        
GRID         220       0 0.23777 0.19050 2.52884       0       0       0        
GRID         221       0 0.25357 0.19050 2.52731       0       0       0        
GRID         222       0 0.00000 0.20637 2.54000       0       0       0        
GRID         223       0 0.01587 0.20637 2.53995       0       0       0        
GRID         224       0 0.03174 0.20637 2.53980       0       0       0        
GRID         225       0 0.04762 0.20637 2.53955       0       0       0        
GRID         226       0 0.06349 0.20637 2.53920       0       0       0        
GRID         227       0 0.07936 0.20637 2.53876       0       0       0        
GRID         228       0 0.09522 0.20637 2.53821       0       0       0        
GRID         229       0 0.11109 0.20637 2.53757       0       0       0        
GRID         230       0 0.12694 0.20637 2.53682       0       0       0        
GRID         231       0 0.14280 0.20637 2.53598       0       0       0        
GRID         232       0 0.15864 0.20637 2.53504       0       0       0        
GRID         233       0 0.17448 0.20637 2.53400       0       0       0        
GRID         234       0 0.19032 0.20637 2.53286       0       0       0        
GRID         235       0 0.20614 0.20637 2.53162       0       0       0        
GRID         236       0 0.22196 0.20637 2.53028       0       0       0        
GRID         237       0 0.23777 0.20637 2.52884       0       0       0        
GRID         238       0 0.25357 0.20637 2.52731       0       0       0        
GRID         239       0 0.00000 0.22225 2.54000       0       0       0        
GRID         240       0 0.01587 0.22225 2.53995       0       0       0        
GRID         241       0 0.03174 0.22225 2.53980       0       0       0        
GRID         242       0 0.04762 0.22225 2.53955       0       0       0        
GRID         243       0 0.06349 0.22225 2.53920       0       0       0        
GRID         244       0 0.07936 0.22225 2.53876       0       0       0        
GRID         245       0 0.09522 0.22225 2.53821       0       0       0        
GRID         246       0 0.11109 0.22225 2.53757       0       0       0        
GRID         247       0 0.12694 0.22225 2.53682       0       0       0        
GRID         248       0 0.14280 0.22225 2.53598       0       0       0        
GRID         249       0 0.15864 0.22225 2.53504       0       0       0        
GRID         250       0 0.17448 0.22225 2.53400       0       0       0        
GRID         251       0 0.19032 0.22225 2.53286       0       0       0        
GRID         252       0 0.20614 0.22225 2.53162       0       0       0        
GRID         253       0 0.22196 0.22225 2.53028       0       0       0        
GRID         254       0 0.23777 0.22225 2.52884       0       0       0        
GRID         255       0 0.25357 0.22225 2.52731       0       0       0        
GRID         256       0 0.00000 0.23812 2.54000       0       0       0        
GRID         257       0 0.01587 0.23812 2.53995       0       0       0        
GRID         258       0 0.03174 0.23812 2.53980       0       0       0        
GRID         259       0 0.04762 0.23812 2.53955       0       0       0        
GRID         260       0 0.06349 0.23812 2.53920       0       0       0        
GRID         261       0 0.07936 0.23812 2.53876       0       0       0        
GRID         262       0 0.09522 0.23812 2.53821       0       0       0        
GRID         263       0 0.11109 0.23812 2.53757       0       0       0        
GRID         264       0 0.12694 0.23812 2.53682       0       0       0        
GRID         265       0 0.14280 0.23812 2.53598       0       0       0        
GRID         266       0 0.15864 0.23812 2.53504       0       0       0        
GRID         267       0 0.17448 0.23812 2.53400       0       0       0        
GRID         268       0 0.19032 0.23812 2.53286       0       0       0        
GRID         269       0 0.20614 0.23812 2.53162       0       0       0        
GRID         270       0 0.22196 0.23812 2.53028       0       0       0        
GRID         271       0 0.23777 0.23812 2.52884       0       0       0        
GRID         272       0 0.25357 0.23812 2.52731       0       0       0        
GRID         273       0 0.00000 0.25400 2.54000       0       0       0        
GRID         274       0 0.01587 0.25400 2.53995       0       0       0        
GRID         275       0 0.03174 0.25400 2.53980       0       0       0        
GRID         276       0 0.04762 0.25400 2.53955       0       0       0        
GRID         277       0 0.06349 0.25400 2.53920       0       0       0        
GRID         278       0 0.07936 0.25400 2.53876       0       0       0        
GRID         279       0 0.09522 0.25400 2.53821       0       0       0        
GRID         280       0 0.11109 0.25400 2.53757       0       0       0        
GRID         281       0 0.12694 0.25400 2.53682       0       0       0        
GRID         282       0 0.14280 0.25400 2.53598       0       0       0        
GRID         283       0 0.15864 0.25400 2.53504       0       0       0        
GRID         284       0 0.17448 0.25400 2.53400       0       0       0        
GRID         285       0 0.19032 0.25400 2.53286       0       0       0        
GRID         286       0 0.20614 0.25400 2.53162       0       0       0        
GRID         287       0 0.22196 0.25400 2.53028       0       0       0        
GRID         288       0 0.23777 0.25400 2.52884       0       0       0        
GRID         289       0 0.25357 0.25400 2.52731       0       0       0        
$       Shell element data for family    PLATE.000/SEG.00                       
CQUAD4         1       1       1      18      19       2                        
CQUAD4         2       1       2      19      20       3                        
CQUAD4         3       1       3      20      21       4                        
CQUAD4         4       1       4      21      22       5                        
CQUAD4         5       1       5      22      23       6                        
CQUAD4         6       1       6      23      24       7                        
CQUAD4         7       1       7      24      25       8                        
CQUAD4         8       1       8      25      26       9                        
CQUAD4         9       1       9      26      27      10                        
CQUAD4        10       1      10      27      28      11                        
CQUAD4        11       1      11      28      29      12                        
CQUAD4        12       1      12      29      30      13                        
CQUAD4        13       1      13      30      31      14                        
CQUAD4        14       1      14      31      32      15                        
CQUAD4        15       1      15      32      33      16                        
CQUAD4        16       1      16      33      34      17                        
CQUAD4        17       1      18      35      36      19                        
CQUAD4        18       1      19      36      37      20                        
CQUAD4        19       1      20      37      38      21                        
CQUAD4        20       1      21      38      39      22                        
CQUAD4        21       1      22      39      40      23                        
CQUAD4        22       1      23      40      41      24                        
CQUAD4        23       1      24      41      42      25                        
CQUAD4        24       1      25      42      43      26                        
CQUAD4        25       1      26      43      44      27                        
CQUAD4        26       1      27      44      45      28                        
CQUAD4        27       1      28      45      46      29                        
CQUAD4        28       1      29      46      47      30                        
CQUAD4        29       1      30      47      48      31                        
CQUAD4        30       1      31      48      49      32                        
CQUAD4        31       1      32      49      50      33                        
CQUAD4        32       1      33      50      51      34                        
CQUAD4        33       1      35      52      53      36                        
CQUAD4        34       1      36      53      54      37                        
CQUAD4        35       1      37      54      55      38                        
CQUAD4        36       1      38      55      56      39                        
CQUAD4        37       1      39      56      57      40                        
CQUAD4        38       1      40      57      58      41                        
CQUAD4        39       1      41      58      59      42                        
CQUAD4        40       1      42      59      60      43                        
CQUAD4        41       1      43      60      61      44                        
CQUAD4        42       1      44      61      62      45                        
CQUAD4        43       1      45      62      63      46                        
CQUAD4        44       1      46      63      64      47                        
CQUAD4        45       1      47      64      65      48                        
CQUAD4        46       1      48      65      66      49                        
CQUAD4        47       1      49      66      67      50                        
CQUAD4        48       1      50      67      68      51                        
CQUAD4        49       1      52      69      70      53                        
CQUAD4        50       1      53      70      71      54                        
CQUAD4        51       1      54      71      72      55                        
CQUAD4        52       1      55      72      73      56                        
CQUAD4        53       1      56      73      74      57                        
CQUAD4        54       1      57      74      75      58                        
CQUAD4        55       1      58      75      76      59                        
CQUAD4        56       1      59      76      77      60                        
CQUAD4        57       1      60      77      78      61                        
CQUAD4        58       1      61      78      79      62                        
CQUAD4        59       1      62      79      80      63                        
CQUAD4        60       1      63      80      81      64                        
CQUAD4        61       1      64      81      82      65                        
CQUAD4        62       1      65      82      83      66                        
CQUAD4        63       1      66      83      84      67                        
CQUAD4        64       1      67      84      85      68                        
CQUAD4        65       1      69      86      87      70                        
CQUAD4        66       1      70      87      88      71                        
CQUAD4        67       1      71      88      89      72                        
CQUAD4        68       1      72      89      90      73                        
CQUAD4        69       1      73      90      91      74                        
CQUAD4        70       1      74      91      92      75                        
CQUAD4        71       1      75      92      93      76                        
CQUAD4        72       1      76      93      94      77                        
CQUAD4        73       1      77      94      95      78                        
CQUAD4        74       1      78      95      96      79                        
CQUAD4        75       1      79      96      97      80                        
CQUAD4        76       1      80      97      98      81                        
CQUAD4        77       1      81      98      99      82                        
CQUAD4        78       1      82      99     100      83                        
CQUAD4        79       1      83     100     101      84                        
CQUAD4        80       1      84     101     102      85                        
CQUAD4        81       1      86     103     104      87                        
CQUAD4        82       1      87     104     105      88                        
CQUAD4        83       1      88     105     106      89                        
CQUAD4        84       1      89     106     107      90                        
CQUAD4        85       1      90     107     108      91                        
CQUAD4        86       1      91     108     109      92                        
CQUAD4        87       1      92     109     110      93                        
CQUAD4        88       1      93     110     111      94                        
CQUAD4        89       1      94     111     112      95                        
CQUAD4        90       1      95     112     113      96                        
CQUAD4        91       1      96     113     114      97                        
CQUAD4        92       1      97     114     115      98                        
CQUAD4        93       1      98     115     116      99                        
CQUAD4        94       1      99     116     117     100                        
CQUAD4        95       1     100     117     118     101                        
CQUAD4        96       1     101     118     119     102                        
CQUAD4        97       1     103     120     121     104                        
CQUAD4        98       1     104     121     122     105                        
CQUAD4        99       1     105     122     123     106                        
CQUAD4       100       1     106     123     124     107                        
CQUAD4       101       1     107     124     125     108                        
CQUAD4       102       1     108     125     126     109                        
CQUAD4       103       1     109     126     127     110                        
CQUAD4       104       1     110     127     128     111                        
CQUAD4       105       1     111     128     129     112                        
CQUAD4       106       1     112     129     130     113                        
CQUAD4       107       1     113     130     131     114                        
CQUAD4       108       1     114     131     132     115                        
CQUAD4       109       1     115     132     133     116                        
CQUAD4       110       1     116     133     134     117                        
CQUAD4       111       1     117     134     135     118                        
CQUAD4       112       1     118     135     136     119                        
CQUAD4       113       1     120     137     138     121                        
CQUAD4       114       1     121     138     139     122                        
CQUAD4       115       1     122     139     140     123                        
CQUAD4       116       1     123     140     141     124                        
CQUAD4       117       1     124     141     142     125                        
CQUAD4       118       1     125     142     143     126                        
CQUAD4       119       1     126     143     144     127                        
CQUAD4       120       1     127     144     145     128                        
CQUAD4       121       1     128     145     146     129                        
CQUAD4       122       1     129     146     147     130                        
CQUAD4       123       1     130     147     148     131                        
CQUAD4       124       1     131     148     149     132                        
CQUAD4       125       1     132     149     150     133                        
CQUAD4       126       1     133     150     151     134                        
CQUAD4       127       1     134     151     152     135                        
CQUAD4       128       1     135     152     153     136                        
CQUAD4       129       1     137     154     155     138                        
CQUAD4       130       1     138     155     156     139                        
CQUAD4       131       1     139     156     157     140                        
CQUAD4       132       1     140     157     158     141                        
CQUAD4       133       1     141     158     159     142                        
CQUAD4       134       1     142     159     160     143                        
CQUAD4       135       1     143     160     161     144                        
CQUAD4       136       1     144     161     162     145                        
CQUAD4       137       1     145     162     163     146                        
CQUAD4       138       1     146     163     164     147                        
CQUAD4       139       1     147     164     165     148                        
CQUAD4       140       1     148     165     166     149                        
CQUAD4       141       1     149     166     167     150                        
CQUAD4       142       1     150     167     168     151                        
CQUAD4       143       1     151     168     169     152                        
CQUAD4       144       1     152     169     170     153                        
CQUAD4       145       1     154     171     172     155                        
CQUAD4       146       1     155     172     173     156                        
CQUAD4       147       1     156     173     174     157                        
CQUAD4       148       1     157     174     175     158                        
CQUAD4       149       1     158     175     176     159                        
CQUAD4       150       1     159     176     177     160                        
CQUAD4       151       1     160     177     178     161                        
CQUAD4       152       1     161     178     179     162                        
CQUAD4       153       1     162     179     180     163                        
CQUAD4       154       1     163     180     181     164                        
CQUAD4       155       1     164     181     182     165                        
CQUAD4       156       1     165     182     183     166                        
CQUAD4       157       1     166     183     184     167                        
CQUAD4       158       1     167     184     185     168                        
CQUAD4       159       1     168     185     186     169                        
CQUAD4       160       1     169     186     187     170                        
CQUAD4       161       1     171     188     189     172                        
CQUAD4       162       1     172     189     190     173                        
CQUAD4       163       1     173     190     191     174                        
CQUAD4       164       1     174     191     192     175                        
CQUAD4       165       1     175     192     193     176                        
CQUAD4       166       1     176     193     194     177                        
CQUAD4       167       1     177     194     195     178                        
CQUAD4       168       1     178     195     196     179                        
CQUAD4       169       1     179     196     197     180                        
CQUAD4       170       1     180     197     198     181                        
CQUAD4       171       1     181     198     199     182                        
CQUAD4       172       1     182     199     200     183                        
CQUAD4       173       1     183     200     201     184                        
CQUAD4       174       1     184     201     202     185                        
CQUAD4       175       1     185     202     203     186                        
CQUAD4       176       1     186     203     204     187                        
CQUAD4       177       1     188     205     206     189                        
CQUAD4       178       1     189     206     207     190                        
CQUAD4       179       1     190     207     208     191                        
CQUAD4       180       1     191     208     209     192                        
CQUAD4       181       1     192     209     210     193                        
CQUAD4       182       1     193     210     211     194                        
CQUAD4       183       1     194     211     212     195                        
CQUAD4       184       1     195     212     213     196                        
CQUAD4       185       1     196     213     214     197                        
CQUAD4       186       1     197     214     215     198                        
CQUAD4       187       1     198     215     216     199                        
CQUAD4       188       1     199     216     217     200                        
CQUAD4       189       1     200     217     218     201                        
CQUAD4       190       1     201     218     219     202                        
CQUAD4       191       1     202     219     220     203                        
CQUAD4       192       1     203     220     221     204                        
CQUAD4       193       1     205     222     223     206                        
CQUAD4       194       1     206     223     224     207                        
CQUAD4       195       1     207     224     225     208                        
CQUAD4       196       1     208     225     226     209                        
CQUAD4       197       1     209     226     227     210                        
CQUAD4       198       1     210     227     228     211                        
CQUAD4       199       1     211     228     229     212                        
CQUAD4       200       1     212     229     230     213                        
CQUAD4       201       1     213     230     231     214                        
CQUAD4       202       1     214     231     232     215                        
CQUAD4       203       1     215     232     233     216                        
CQUAD4       204       1     216     233     234     217                        
CQUAD4       205       1     217     234     235     218                        
CQUAD4       206       1     218     235     236     219                        
CQUAD4       207       1     219     236     237     220                        
CQUAD4       208       1     220     237     238     221                        
CQUAD4       209       1     222     239     240     223                        
CQUAD4       210       1     223     240     241     224                        
CQUAD4       211       1     224     241     242     225                        
CQUAD4       212       1     225     242     243     226                        
CQUAD4       213       1     226     243     244     227                        
CQUAD4       214       1     227     244     245     228                        
CQUAD4       215       1     228     245     246     229                        
CQUAD4       216       1     229     246     247     230                        
CQUAD4       217       1     230     247     248     231                        
CQUAD4       218       1     231     248     249     232                        
CQUAD4       219       1     232     249     250     233                        
CQUAD4       220       1     233     250     251     234                        
CQUAD4       221       1     234     251     252     235                        
CQUAD4       222       1     235     252     253     236                        
CQUAD4       223       1     236     253     254     237                        
CQUAD4       224       1     237     254     255     238                        
CQUAD4       225       1     239     256     257     240                        
CQUAD4       226       1     240     257     258     241                        
CQUAD4       227       1     241     258     259     242                        
CQUAD4       228       1     242     259     260     243                        
CQUAD4       229       1     243     260     261     244                        
CQUAD4       230       1     244     261     262     245                        
CQUAD4       231       1     245     262     263     246                        
CQUAD4       232       1     246     263     264     247                        
CQUAD4       233       1     247     264     265     248                        
CQUAD4       234       1     248     265     266     249                        
CQUAD4       235       1     249     266     267     250                        
CQUAD4       236       1     250     267     268     251                        
CQUAD4       237       1     251     268     269     252                        
CQUAD4       238       1     252     269     270     253                        
CQUAD4       239       1     253     270     271     254                        
CQUAD4       240       1     254     271     272     255                        
CQUAD4       241       1     256     273     274     257                        
CQUAD4       242       1     257     274     275     258                        
CQUAD4       243       1     258     275     276     259                        
CQUAD4       244       1     259     276     277     260                        
CQUAD4       245       1     260     277     278     261                        
CQUAD4       246       1     261     278     279     262                        
CQUAD4       247       1     262     279     280     263                        
CQUAD4       248       1     263     280     281     264                        
CQUAD4       249       1     264     281     282     265                        
CQUAD4       250       1     265     282     283     266                        
CQUAD4       251       1     266     283     284     267                        
CQUAD4       252       1     267     284     285     268                        
CQUAD4       253       1     268     285     286     269                        
CQUAD4       254       1     269     286     287     270                        
CQUAD4       255       1     270     287     288     271                        
CQUAD4       256       1     271     288     289     272                        
SPC            1       112456    0.00000                                        
SPC            1       2246      0.00000                                        
SPC            1       3246      0.00000                                        
SPC            1       4246      0.00000                                        
SPC            1       5246      0.00000                                        
SPC            1       6246      0.00000                                        
SPC            1       7246      0.00000                                        
SPC            1       8246      0.00000                                        
SPC            1       9246      0.00000                                        
SPC            1      10246      0.00000                                        
SPC            1      11246      0.00000                                        
SPC            1      12246      0.00000                                        
SPC            1      13246      0.00000                                        
SPC            1      14246      0.00000                                        
SPC            1      15246      0.00000                                        
SPC            1      16246      0.00000                                        
SPC            1      1712346    0.00000                                        
SPC            1      18156      0.00000                                        
SPC            1      34123      0.00000                                        
SPC            1      35156      0.00000                                        
SPC            1      51123      0.00000                                        
SPC            1      52156      0.00000                                        
SPC            1      68123      0.00000                                        
SPC            1      69156      0.00000                                        
SPC            1      85123      0.00000                                        
SPC            1      86156      0.00000                                        
SPC            1     102123      0.00000                                        
SPC            1     103156      0.00000                                        
SPC            1     119123      0.00000                                        
SPC            1     120156      0.00000                                        
SPC            1     136123      0.00000                                        
SPC            1     137156      0.00000                                        
SPC            1     153123      0.00000                                        
SPC            1     154156      0.00000                                        
SPC            1     170123      0.00000                                        
SPC            1     171156      0.00000                                        
SPC            1     187123      0.00000                                        
SPC            1     188156      0.00000                                        
SPC            1     204123      0.00000                                        
SPC            1     205156      0.00000                                        
SPC            1     221123      0.00000                                        
SPC            1     222156      0.00000                                        
SPC            1     238123      0.00000                                        
SPC            1     239156      0.00000                                        
SPC            1     255123      0.00000                                        
SPC            1     256156      0.00000                                        
SPC            1     272123      0.00000                                        
SPC            1     273156      0.00000                                        
SPC            1     289123      0.00000                                        
ENDDATA                                                                         
